<?xml version="1.0" encoding="UTF-8" standalone="no"?>
<svg width="21px" height="21px" viewBox="0 0 21 21" version="1.1" xmlns="http://www.w3.org/2000/svg" xmlns:xlink="http://www.w3.org/1999/xlink">
    <title>Combined Shape Copy</title>
    <defs></defs>
    <g id="Page-1" stroke="none" stroke-width="1" fill="none" fill-rule="evenodd">
        <g id="Symbols" transform="translate(-131.000000, -395.000000)" fill="#E11F1C">
            <path d="M141.5,416 C147.29899,416 152,411.29899 152,405.5 C152,399.70101 147.29899,395 141.5,395 C135.70101,395 131,399.70101 131,405.5 C131,411.29899 135.70101,416 141.5,416 Z M141.5,411 C142.328427,411 143,410.328427 143,409.5 C143,408.671573 142.328427,408 141.5,408 C140.671573,408 140,408.671573 140,409.5 C140,410.328427 140.671573,411 141.5,411 Z M140.538971,407.005594 L140.064147,400.446634 L143.011428,400.478762 L142.524888,406.968851 L140.538971,407.005594 Z" id="Combined-Shape-Copy"></path>
        </g>
    </g>
</svg>