<?xml version="1.0" encoding="UTF-8" standalone="no"?>
<svg width="31px" height="19px" viewBox="0 0 31 19" version="1.1" xmlns="http://www.w3.org/2000/svg" xmlns:xlink="http://www.w3.org/1999/xlink">
    <!-- Generator: Sketch 41.2 (35397) - http://www.bohemiancoding.com/sketch -->
    <title>icon-camera</title>
    <desc>Created with Sketch.</desc>
    <defs></defs>
    <g id="Page-1" stroke="none" stroke-width="1" fill="none" fill-rule="evenodd">
        <g id="Symbols" transform="translate(-64.000000, -349.000000)" fill="#E2753F">
            <path d="M74,350 L67.0079286,350 C65.3499012,350 64,351.339806 64,352.99254 L64,365.00746 C64,366.647074 65.3466955,368 67.0079286,368 L91.4920714,368 C93.1500988,368 94.5,366.660194 94.5,365.00746 L94.5,352.99254 C94.5,351.352926 93.1533045,350 91.4920714,350 L84,350 L84,349.998957 C84,349.44266 83.5543453,349 83.0046024,349 L74.9953976,349 C74.4556644,349 74,349.447248 74,349.998957 L74,350 Z M90.25,356.5 C91.2164983,356.5 92,355.716498 92,354.75 C92,353.783502 91.2164983,353 90.25,353 C89.2835017,353 88.5,353.783502 88.5,354.75 C88.5,355.716498 89.2835017,356.5 90.25,356.5 Z M79.25,364 C81.8733526,364 84,361.873353 84,359.25 C84,356.626647 81.8733526,354.5 79.25,354.5 C76.6266474,354.5 74.5,356.626647 74.5,359.25 C74.5,361.873353 76.6266474,364 79.25,364 Z M79.25,361.5 C80.4926407,361.5 81.5,360.492641 81.5,359.25 C81.5,358.007359 80.4926407,357 79.25,357 C78.0073593,357 77,358.007359 77,359.25 C77,360.492641 78.0073593,361.5 79.25,361.5 Z" id="icon-camera"></path>
        </g>
    </g>
</svg>