<?xml version="1.0" encoding="UTF-8" standalone="no"?>
<svg width="17px" height="13px" viewBox="0 0 17 13" version="1.1" xmlns="http://www.w3.org/2000/svg" xmlns:xlink="http://www.w3.org/1999/xlink">
    <title>green-check</title>
    <defs></defs>
    <g id="Page-1" stroke="none" stroke-width="1" fill="none" fill-rule="evenodd">
        <g id="iPhone-SE-Copy-17" transform="translate(-258.000000, -284.000000)" fill="#38A14F">
            <path d="M270.465835,289.676048 C270.514942,289.709778 270.5616,289.748402 270.605107,289.791908 L271.877298,291.064099 C272.266326,291.453127 272.269457,292.080735 271.87418,292.476012 L266.436837,297.913355 C266.046087,298.304105 265.41125,298.302798 265.024924,297.916473 L263.752733,296.644282 C263.363705,296.255254 263.360574,295.627646 263.755851,295.232369 L267.208018,291.780202 L260.468854,285.041038 C260.074724,284.646908 260.078904,284.02035 260.467932,283.631322 L261.740123,282.359131 C262.126449,281.972805 262.760303,281.970515 263.14984,282.360052 L270.465835,289.676048 Z" id="green-check" transform="translate(266.172280, 290.137480) rotate(89.000000) translate(-266.172280, -290.137480) "></path>
        </g>
    </g>
</svg>
