<?xml version="1.0" encoding="UTF-8" standalone="no"?>
<svg width="13px" height="13px" viewBox="0 0 13 13" version="1.1" xmlns="http://www.w3.org/2000/svg" xmlns:xlink="http://www.w3.org/1999/xlink">
    <title>red-x</title>
    <defs></defs>
    <g id="Page-1" stroke="none" stroke-width="1" fill="none" fill-rule="evenodd">
        <g id="iPhone-SE-Copy-17" transform="translate(-258.000000, -451.000000)" fill="#C1272A">
            <path d="M267.180986,457.501088 L270.681641,454.000433 C271.072844,453.609231 271.077863,452.973472 270.688835,452.584444 L269.416644,451.312253 C269.030319,450.925928 268.393656,450.926446 268.000655,451.319448 L264.5,454.820102 L260.999345,451.319448 C260.606344,450.926446 259.969681,450.925928 259.583356,451.312253 L258.311165,452.584444 C257.922137,452.973472 257.927156,453.609231 258.318359,454.000433 L261.819014,457.501088 L258.318359,461.001743 C257.927156,461.392946 257.922137,462.028704 258.311165,462.417732 L259.583356,463.689923 C259.969681,464.076248 260.606344,464.07573 260.999345,463.682729 L264.5,460.182074 L268.000655,463.682729 C268.393656,464.07573 269.030319,464.076248 269.416644,463.689923 L270.688835,462.417732 C271.077863,462.028704 271.072844,461.392946 270.681641,461.001743 L267.180986,457.501088 Z" id="red-x"></path>
        </g>
    </g>
</svg>
